<?xml version="1.0" standalone="no"?>
<!DOCTYPE svg PUBLIC "-//W3C//DTD SVG 20010904//EN"
 "http://www.w3.org/TR/2001/REC-SVG-20010904/DTD/svg10.dtd">
<svg version="1.0" xmlns="http://www.w3.org/2000/svg"
 width="310.000000pt" height="310.000000pt" viewBox="0 0 310.000000 310.000000"
 preserveAspectRatio="xMidYMid meet">
<metadata>
Created by potrace 1.11, written by Peter Selinger 2001-2013
</metadata>
<g transform="translate(0.000000,310.000000) scale(0.100000,-0.100000)"
fill="#000000" stroke="none">
<path d="M0 1885 l0 -1215 85 0 c92 0 203 -28 241 -62 11 -10 29 -18 40 -18
10 0 28 -7 38 -15 28 -21 38 -9 31 39 -8 49 10 193 26 212 9 11 14 9 28 -8 10
-12 23 -18 30 -14 22 14 113 158 144 227 l30 69 -43 40 c-48 44 -62 44 -53 0
3 -19 1 -30 -6 -30 -6 0 -11 8 -11 18 0 15 -12 17 -95 19 -106 2 -151 16 -160
50 -3 13 -13 23 -23 23 -11 0 -33 21 -52 47 l-34 46 23 39 c18 31 20 42 11 54
-10 11 -9 15 5 21 11 4 22 0 30 -10 14 -20 25 -22 25 -4 1 16 35 57 49 57 6 0
11 4 11 9 0 5 13 8 29 7 16 0 27 -4 25 -8 -3 -5 1 -17 8 -27 12 -17 16 -17 33
-5 13 10 16 17 9 22 -7 4 -13 66 -16 170 -3 105 -9 167 -16 174 -7 7 -12 31
-12 55 0 24 -4 43 -9 43 -6 0 -8 44 -6 107 2 83 0 112 -12 130 -12 17 -14 42
-10 105 8 134 23 225 43 256 14 22 54 31 54 12 0 -5 8 -10 18 -10 9 0 40 -20
68 -44 l50 -44 47 29 c26 16 55 29 65 29 27 0 28 2 22 72 -6 68 6 112 26 104
8 -3 20 1 28 9 22 22 26 19 26 -25 0 -47 45 -143 83 -178 33 -31 89 -37 157
-17 30 9 75 20 98 24 30 6 51 17 68 37 18 23 23 25 24 12 0 -22 28 -23 58 -2
16 11 20 22 16 39 -3 12 -1 26 5 29 6 4 11 23 11 42 0 43 11 43 47 -1 15 -19
40 -37 55 -41 24 -5 29 -2 39 22 6 16 8 38 6 49 -8 29 -31 88 -42 105 -11 17
-15 31 -22 80 -3 19 -10 40 -15 47 -6 7 -6 18 0 30 6 10 15 31 21 46 6 15 15
26 19 23 7 -4 20 20 36 67 3 9 15 17 26 17 11 0 20 7 20 15 0 13 -93 15 -775
15 l-775 0 0 -1215z m1061 981 c59 -18 102 -40 120 -62 12 -15 11 -16 -21 -9
-19 4 -55 14 -79 22 -24 8 -66 15 -95 17 -48 2 -96 21 -96 38 0 13 122 9 171
-6z m-189 -16 c4 -31 0 -34 -41 -37 -40 -3 -42 -1 -30 15 8 9 19 20 24 24 15
11 45 10 47 -2z m255 -125 c3 -9 3 -18 0 -21 -7 -8 -97 17 -97 27 0 17 90 10
97 -6z m-567 -1635 c0 -5 -4 -10 -10 -10 -5 0 -10 5 -10 10 0 6 5 10 10 10 6
0 10 -4 10 -10z m-284 -168 c-22 -5 -30 3 -21 18 5 8 11 7 22 -2 15 -12 14
-13 -1 -16z"/>
<path d="M2010 3062 c0 -46 6 -54 30 -39 15 9 26 7 54 -8 20 -11 36 -27 36
-36 0 -18 43 -41 63 -33 9 3 19 -6 27 -25 7 -17 17 -28 25 -25 7 3 16 1 20 -5
9 -16 25 -13 19 2 -8 23 21 40 46 27 17 -9 24 -9 33 3 29 35 270 95 325 80 13
-3 22 -1 22 6 0 6 17 11 38 11 21 0 46 6 56 13 16 12 16 14 2 26 -9 8 -16 20
-16 27 0 12 -65 14 -390 14 l-390 0 0 -38z"/>
<path d="M2830 3090 c0 -5 8 -10 18 -10 11 0 27 -9 37 -20 10 -11 22 -20 26
-20 11 0 -1 31 -17 48 -15 14 -64 16 -64 2z"/>
<path d="M2912 3089 c2 -7 10 -15 17 -17 8 -3 12 1 9 9 -2 7 -10 15 -17 17 -8
3 -12 -1 -9 -9z"/>
<path d="M2580 2902 c-61 -4 -167 -30 -212 -53 -21 -10 -42 -19 -47 -19 -14 0
-61 -48 -61 -62 0 -6 -15 -29 -33 -52 -82 -101 -45 -102 58 -1 42 41 80 75 86
75 5 0 26 11 47 24 38 24 120 46 172 46 27 0 87 -16 153 -42 22 -8 25 -13 16
-24 -13 -15 -109 -20 -109 -5 0 4 -40 7 -89 5 -68 -3 -100 -9 -142 -29 -30
-14 -58 -25 -64 -25 -41 -2 -175 -164 -175 -212 0 -28 26 -21 54 15 14 17 33
41 43 52 17 19 18 19 25 -10 4 -17 10 -48 13 -69 9 -53 49 -91 120 -111 86
-25 145 -25 178 2 49 38 96 106 108 155 6 27 15 48 20 48 13 0 39 -67 39 -100
0 -33 9 -43 26 -29 10 8 22 8 45 0 24 -8 36 -8 46 0 14 12 15 77 1 85 -4 3 -8
17 -8 32 0 17 -8 32 -20 40 -25 15 -17 32 15 32 16 0 30 -10 42 -30 26 -44 47
-36 23 9 -10 19 7 42 40 54 8 3 1 5 -15 4 -38 -1 -56 9 -48 29 4 10 -5 25 -21
41 -14 13 -24 28 -21 34 4 5 0 9 -7 9 -7 0 -37 16 -66 36 -56 37 -131 52 -232
46z m239 -135 c14 -17 4 -27 -25 -27 -39 0 -56 10 -43 26 15 18 53 18 68 1z
m59 -64 c3 -20 1 -21 -35 -10 -48 14 -51 16 -33 28 26 16 65 6 68 -18z m-303
4 c29 -22 9 -38 -38 -31 -51 8 -74 23 -55 35 20 13 72 10 93 -4z"/>
<path d="M1423 2103 c-7 -3 -13 -15 -13 -28 0 -12 -6 -28 -14 -34 -18 -15 -27
-49 -14 -57 19 -12 68 48 68 82 0 35 -7 44 -27 37z"/>
<path d="M3087 2035 c-18 -88 -57 -298 -57 -305 0 -9 61 -33 67 -26 2 2 2 86
1 187 -2 126 -6 171 -11 144z"/>
<path d="M1556 1902 c-8 -16 -23 -33 -33 -37 -35 -14 -144 -34 -158 -29 -7 3
-23 -4 -34 -15 -17 -17 -21 -33 -21 -94 0 -99 13 -111 122 -116 49 -2 90 1
107 9 14 7 40 18 56 26 17 8 70 14 125 15 90 2 144 -8 228 -42 50 -20 74 -11
129 48 49 54 51 58 36 75 -9 10 -22 18 -30 18 -7 0 -13 4 -13 10 0 11 -72 50
-94 50 -8 0 -33 16 -56 35 -40 33 -46 35 -119 35 -51 0 -83 5 -98 15 -11 8
-46 17 -76 21 -54 6 -56 6 -71 -24z"/>
<path d="M1390 1419 c0 -6 7 -23 15 -37 9 -15 23 -49 33 -76 28 -79 74 -94 51
-17 -10 32 -9 43 1 56 14 17 3 33 -52 68 -31 20 -48 22 -48 6z"/>
<path d="M2230 1398 c-30 -4 -67 -5 -82 -2 -32 6 -51 -19 -37 -50 6 -12 6 -38
2 -61 -7 -32 -14 -41 -33 -43 -38 -6 -52 -22 -45 -53 6 -25 3 -28 -27 -33
-102 -15 -121 -14 -176 10 -62 27 -75 29 -101 12 -16 -9 -27 -8 -58 5 -47 21
-128 17 -173 -9 -31 -19 -32 -19 -46 0 -8 11 -14 32 -14 46 0 29 -25 45 -87
60 -49 12 -61 -4 -69 -92 -7 -75 -6 -78 15 -78 11 0 21 4 21 10 0 12 52 -10
63 -27 4 -7 13 -13 20 -13 7 0 17 -10 22 -22 6 -13 17 -23 25 -23 9 0 16 -11
18 -30 2 -16 10 -34 19 -40 8 -6 14 -18 13 -26 -4 -27 0 -37 20 -42 10 -3 27
-22 37 -43 10 -22 21 -40 24 -42 4 -2 -2 -20 -12 -42 -25 -51 -24 -52 14 -71
39 -19 130 -15 148 7 6 8 15 14 20 14 12 0 89 77 83 83 -3 3 -22 1 -42 -4 -25
-5 -58 -3 -97 6 -35 8 -61 10 -63 4 -2 -5 -10 -9 -18 -9 -16 0 -19 33 -4 60 9
18 11 18 49 -1 40 -19 168 -42 183 -33 4 3 8 11 8 18 0 9 -16 13 -53 13 -41 0
-62 6 -85 23 -18 13 -32 29 -32 35 0 18 59 77 70 70 6 -4 17 -2 24 4 10 9 15
8 20 -4 3 -8 13 -15 21 -15 12 0 15 6 10 21 -6 19 -4 21 20 17 22 -5 36 4 82
48 57 56 69 62 75 42 3 -9 9 -8 22 5 10 9 24 17 32 17 20 0 38 -48 24 -65 -7
-9 -7 -21 0 -39 5 -15 10 -41 10 -57 0 -17 12 -55 26 -84 21 -46 30 -55 59
-61 21 -4 46 0 69 10 20 9 51 23 70 31 19 8 56 15 83 15 44 0 51 -3 63 -27
l14 -28 5 35 c6 36 56 80 91 80 18 0 30 -36 30 -93 0 -45 -37 -117 -57 -110
-13 5 -14 -3 -8 -58 9 -82 -9 -126 -84 -204 -22 -24 -41 -46 -41 -49 0 -18 68
-38 124 -36 34 2 83 2 109 1 l48 -2 30 65 c24 52 32 85 39 177 5 63 10 117 10
122 0 14 21 7 53 -17 32 -24 258 -146 270 -146 4 0 7 70 7 155 0 141 -2 155
-17 155 -10 0 -27 7 -37 15 -11 8 -39 15 -62 15 -56 0 -74 8 -74 32 0 11 -9
31 -20 45 -11 14 -20 32 -20 40 0 15 -1 16 -50 74 -26 32 -28 38 -15 49 41 34
-3 59 -61 35 -40 -17 -91 -8 -126 22 -9 8 -22 13 -30 11 -8 -2 -32 11 -53 28
-22 17 -56 39 -75 49 -19 10 -44 23 -55 28 -11 6 -41 21 -67 33 -25 13 -48 27
-50 31 -1 5 -28 5 -58 1z m-887 -183 c-6 -30 -21 -25 -17 7 3 31 3 30 13 24 4
-3 6 -17 4 -31z m6 -67 c-27 -10 -43 0 -29 17 9 11 16 12 31 2 18 -11 18 -12
-2 -19z m1358 -460 c-2 -13 -4 -5 -4 17 -1 22 1 32 4 23 2 -10 2 -28 0 -40z"/>
<path d="M1550 1330 c0 -5 4 -10 9 -10 6 0 13 5 16 10 3 6 -1 10 -9 10 -9 0
-16 -4 -16 -10z"/>
<path d="M1480 1190 c0 -5 5 -10 10 -10 6 0 10 5 10 10 0 6 -4 10 -10 10 -5 0
-10 -4 -10 -10z"/>
<path d="M805 954 c-12 -19 -15 -37 -11 -68 7 -46 80 -183 124 -233 34 -38
147 -113 172 -113 10 0 22 -5 26 -11 9 -16 -17 -31 -41 -23 -11 4 -35 6 -53 5
-18 -1 -43 4 -54 10 -19 10 -20 9 -15 -10 7 -27 1 -26 -66 4 -50 23 -95 25
-81 4 3 -5 -14 -9 -38 -9 -24 0 -50 -5 -58 -10 -8 -5 -13 -10 -10 -10 3 0 43
-14 90 -30 255 -91 446 -130 635 -130 83 0 125 7 125 20 0 4 -19 11 -42 14
-48 7 -87 26 -55 26 9 0 17 6 17 13 0 12 -44 37 -66 37 -10 0 -24 21 -24 34 0
2 19 2 42 1 78 -4 365 83 360 110 -1 6 -23 11 -49 13 -27 1 -104 16 -173 33
-99 24 -149 43 -240 91 -63 33 -119 64 -125 68 -5 3 -32 15 -60 25 -53 19
-227 103 -235 114 -7 8 -68 51 -73 51 -3 0 -12 -12 -22 -26z m547 -486 c-9 -9
-15 -9 -24 0 -9 9 -7 12 12 12 19 0 21 -3 12 -12z"/>
<path d="M2000 960 c0 -5 5 -10 10 -10 6 0 10 5 10 10 0 6 -4 10 -10 10 -5 0
-10 -4 -10 -10z"/>
<path d="M1927 913 c-13 -13 -7 -32 8 -27 8 4 15 12 15 20 0 15 -12 19 -23 7z"/>
<path d="M530 620 c0 -5 7 -10 15 -10 8 0 15 5 15 10 0 6 -7 10 -15 10 -8 0
-15 -4 -15 -10z"/>
<path d="M2805 361 c-3 -6 11 -13 32 -16 44 -7 220 -51 246 -60 14 -6 17 -1
17 33 0 27 -5 42 -16 46 -26 10 -272 7 -279 -3z"/>
<path d="M1565 350 c-3 -5 -1 -10 4 -10 6 0 11 5 11 10 0 6 -2 10 -4 10 -3 0
-8 -4 -11 -10z"/>
<path d="M2978 144 c-4 -3 -51 -10 -105 -14 -124 -11 -163 -24 -163 -55 0 -12
-11 -31 -25 -41 -14 -10 -25 -22 -25 -26 0 -5 99 -8 220 -8 l220 0 0 69 0 69
-31 6 c-39 8 -84 8 -91 0z"/>
</g>
</svg>
